<?xml version="1.0" encoding="UTF-8"?>
<svg xmlns="http://www.w3.org/2000/svg" viewBox="0 0 653.73 844">
  <g id="Layer_2" data-name="Layer 2">
    <rect x="19.02" y="19.54" width="351.95" height="804.93" fill="#f1f2f2"/>
  </g>
  <g id="Layer_5" data-name="Layer 5">
    <rect y="523.28" width="390" height="310.05" rx="43.34" ry="43.34" fill="#d1d3d4"/>
    <rect x="26.96" y="547.01" width="44.8" height="63.17" rx="13.62" ry="13.62" fill="#e6e7e8"/>
    <rect x="84.55" y="547.01" width="44.8" height="63.17" rx="13.62" ry="13.62" fill="#e6e7e8"/>
    <rect x="144.08" y="547.01" width="44.8" height="63.17" rx="13.62" ry="13.62" fill="#e6e7e8"/>
    <rect x="203.61" y="547.01" width="44.8" height="63.17" rx="13.62" ry="13.62" fill="#e6e7e8"/>
    <rect x="261.04" y="547.01" width="44.8" height="63.17" rx="13.62" ry="13.62" fill="#e6e7e8"/>
    <rect x="318.48" y="547.01" width="44.8" height="63.17" rx="13.62" ry="13.62" fill="#e6e7e8"/>
    <rect x="26.96" y="623.25" width="44.8" height="63.17" rx="13.62" ry="13.62" fill="#e6e7e8"/>
    <rect x="84.55" y="623.25" width="44.8" height="63.17" rx="13.62" ry="13.62" fill="#e6e7e8"/>
    <rect x="144.08" y="623.25" width="44.8" height="63.17" rx="13.62" ry="13.62" fill="#e6e7e8"/>
    <rect x="203.61" y="623.25" width="44.8" height="63.17" rx="13.62" ry="13.62" fill="#e6e7e8"/>
    <rect x="261.04" y="623.25" width="44.8" height="63.17" rx="13.62" ry="13.62" fill="#e6e7e8"/>
    <rect x="318.48" y="623.25" width="44.8" height="63.17" rx="13.62" ry="13.62" fill="#e6e7e8"/>
    <rect x="255.48" y="768.07" width="107.79" height="42.55" rx="13.62" ry="13.62" fill="#e6e7e8"/>
    <rect x="68.66" y="705.97" width="252.68" height="42.55" rx="13.62" ry="13.62" fill="#e6e7e8"/>
    <rect x="26.96" y="768.07" width="107.79" height="42.55" rx="13.62" ry="13.62" fill="#e6e7e8"/>
  </g>
  <g id="Layer_1" data-name="Layer 1">
    <path d="M350.55,844H39.45c-21.75,0-39.45-18.17-39.45-40.51V40.51C0,18.17,17.7,0,39.45,0h311.1c21.75,0,39.45,18.17,39.45,40.51v762.97c0,22.34-17.7,40.51-39.45,40.51ZM39.45,19.54c-11.26,0-20.43,9.41-20.43,20.98v762.97c0,11.57,9.16,20.98,20.43,20.98h311.1c11.26,0,20.43-9.41,20.43-20.98V40.51c0-11.57-9.16-20.98-20.43-20.98H39.45Z" fill="#231f20"/>
    <path d="M224.78,31.7c0,17.51-15.09,31.7-33.71,31.7s-33.71-14.19-33.71-31.7c0-3.53.8-15.15-2.55-15.49-34.46-3.45,22.25-13.25,36.83-10.32,29.3,5.9,63.35-14.55,34.07,11.54-2.3,2.05-.93,11.04-.93,14.26Z" fill="#231f20"/>
    <circle cx="190.4" cy="31.18" r="19.75" fill="#414042"/>
    <circle cx="190.4" cy="31.18" r="12.46" fill="#231f20"/>
    <circle cx="198.52" cy="22.23" r="3.52" fill="#f1f2f2" opacity=".39"/>
  </g>
  <g id="Layer_4" data-name="Layer 4">
    <path d="M55.91,74.91c-5.83,5.11-11.65,10.22-17.48,15.33-.82.72-1.65,1.45-2.47,2.17-1.02.89-.91,2.62,0,3.54,1.01,1.01,2.52.89,3.54,0,5.83-5.11,11.65-10.22,17.48-15.33.82-.72,1.65-1.45,2.47-2.17,1.02-.89.91-2.62,0-3.54-1.01-1.01-2.52-.89-3.54,0h0Z" fill="#231f20"/>
    <path d="M58.94,105.27c-5.82-3.87-11.64-7.73-17.46-11.6l-2.49-1.66c-1.13-.75-2.77-.22-3.42.9-.72,1.22-.23,2.67.9,3.42,5.82,3.87,11.64,7.73,17.46,11.6l2.49,1.66c1.13.75,2.77.22,3.42-.9.72-1.22.23-2.67-.9-3.42h0Z" fill="#231f20"/>
  </g>
</svg>